<svg xmlns="http://www.w3.org/2000/svg" width="53.905" height="53.905" viewBox="0 0 53.905 53.905"><defs><style>.a{fill:#fff;}.b{fill:#4285f4;}</style></defs><g transform="translate(-916 -1182)"><path class="a" d="M26.952,0A26.952,26.952,0,1,1,0,26.952,26.952,26.952,0,0,1,26.952,0Z" transform="translate(916 1182)"/><g transform="translate(925.691 1191.691)"><path class="b" d="M17.179,34.357A17.179,17.179,0,1,1,34.357,17.179,17.2,17.2,0,0,1,17.179,34.357Zm0-33.212A16.033,16.033,0,1,0,33.212,17.179,16.052,16.052,0,0,0,17.179,1.145Zm0,0"/><path class="b" d="M146.485,188.659a1.955,1.955,0,0,1-1.814-1.228l-.628-1.569a1.921,1.921,0,0,1-.081-.251l-1.086-4.343a.822.822,0,0,0-.061-.165l-.583-1.165a.8.8,0,0,0-.917-.422l-.554.138a1.963,1.963,0,0,1-1.693-.369l-1.812-1.449a1.944,1.944,0,0,1-.732-1.524V175.7a1.938,1.938,0,0,1,.364-1.134l2.193-3.071a1.956,1.956,0,0,1,1.589-.818h1.2a1.947,1.947,0,0,1,1,.279l2.077,1.246a.8.8,0,0,0,.573.1l1.242-.249a1.959,1.959,0,0,1,2.177,1.146l1.1,2.569a.807.807,0,0,0,.326.373l1.128.678a1.952,1.952,0,0,1,.52,2.893l-1,1.253a.812.812,0,0,0-.177.5v1.808a1.965,1.965,0,0,1-.572,1.381l-.621.621a.813.813,0,0,0-.121.155l-1.368,2.28a1.953,1.953,0,0,1-1.056.847A1.889,1.889,0,0,1,146.485,188.659Zm-4.966-10.314a1.938,1.938,0,0,1,1.738,1.081l.583,1.165a1.942,1.942,0,0,1,.148.4l1.086,4.343a.776.776,0,0,0,.033.1l.628,1.571a.807.807,0,0,0,1.441.115l1.368-2.28a1.966,1.966,0,0,1,.293-.375l.621-.622a.811.811,0,0,0,.236-.57v-1.808a1.958,1.958,0,0,1,.428-1.219l1-1.253a.806.806,0,0,0-.215-1.2l-1.128-.677a1.938,1.938,0,0,1-.79-.9l-1.1-2.57a.812.812,0,0,0-.9-.474l-1.242.249a1.942,1.942,0,0,1-1.388-.24l-2.078-1.247a.8.8,0,0,0-.415-.115h-1.2a.809.809,0,0,0-.656.338l-2.194,3.071a.8.8,0,0,0-.15.468v.613a.8.8,0,0,0,.3.63l1.812,1.449a.809.809,0,0,0,.7.153l.554-.138A1.934,1.934,0,0,1,141.519,178.345Zm0,0" transform="translate(-127.362 -159.223)"/><path class="b" d="M360.121,331.134a.572.572,0,0,1-.4-.168l-1.145-1.145a.573.573,0,0,1-.156-.517l.573-2.863a.577.577,0,0,1,.156-.293l1.718-1.718a.572.572,0,0,1,.966.293l.572,2.863a.575.575,0,0,1-.07.407l-1.718,2.863a.573.573,0,0,1-.421.274C360.167,331.132,360.144,331.134,360.121,331.134Zm-.524-1.906.41.411,1.227-2.044-.32-1.6-.839.839Zm0,0" transform="translate(-334.353 -302.503)"/><path class="b" d="M175.744,16.2a2,2,0,0,1-1.933-1.52,6.1,6.1,0,0,0-.5-1.361.776.776,0,0,0-.617-.412.88.88,0,0,0-.768.319c-1.153,1.393-2.275,2.038-3.341,1.917a2.719,2.719,0,0,1-1.943-1.424c-2.654-5.308-7.394-4.849-7.441-4.84a.567.567,0,0,1-.063,0,2.869,2.869,0,0,0-1.049.227,2.95,2.95,0,0,1-3.48-.944,2.81,2.81,0,0,1,.012-3.477l.066-.087a2.381,2.381,0,0,1,1.686-.9A5.633,5.633,0,0,0,161.147.613a.569.569,0,0,1,.531-.3,17.123,17.123,0,0,1,16.22,15,.572.572,0,0,1-.459.633c-.463.09-.945.169-1.433.233a2.1,2.1,0,0,1-.261.017Zm-3.137-4.444c.068,0,.136,0,.2.011a1.9,1.9,0,0,1,1.512,1.014,7.216,7.216,0,0,1,.6,1.618.853.853,0,0,0,.932.649c.28-.037.558-.079.831-.125A15.975,15.975,0,0,0,161.973,1.476a6.777,6.777,0,0,1-5.5,3.366,1.234,1.234,0,0,0-.876.463l-.057.073a1.672,1.672,0,0,0-.014,2.092,1.794,1.794,0,0,0,2.143.575,4.022,4.022,0,0,1,1.445-.309,7.988,7.988,0,0,1,3.151.462,9.558,9.558,0,0,1,5.406,5.009,1.57,1.57,0,0,0,1.056.8c.646.081,1.447-.452,2.321-1.51a2.026,2.026,0,0,1,1.561-.739Zm0,0" transform="translate(-143.68 -0.29)"/><path class="b" d="M3.288,104.383H1.894a.572.572,0,0,1-.569-.631A17.1,17.1,0,0,1,4.9,94.923a.572.572,0,0,1,.706-.158l2.15,1.075a3.161,3.161,0,0,1,1.7,2.3L9.5,98.4a3.137,3.137,0,0,1-1.7,3.337l-1.12.56a2.018,2.018,0,0,0-.772.682,3.145,3.145,0,0,1-2.622,1.4Zm-.748-1.145h.748a2,2,0,0,0,1.669-.893,3.156,3.156,0,0,1,1.213-1.071l1.12-.56a2,2,0,0,0,1.082-2.124l-.044-.262h0a2.013,2.013,0,0,0-1.082-1.464L5.521,96a15.955,15.955,0,0,0-2.98,7.237Zm0,0" transform="translate(-1.233 -88.349)"/><path class="b" d="M8.006,276.375a.573.573,0,0,1-.352-.12,17.229,17.229,0,0,1-6.578-12,.573.573,0,0,1,.345-.579l.6-.257a3.159,3.159,0,0,1,3.494.673l1.061,1.061a2.022,2.022,0,0,0,1.036.555,3.182,3.182,0,0,1,2.551,3.112v.159a4.334,4.334,0,0,1-.731,2.415,3.227,3.227,0,0,0-.52,1.425l-.338,3.043a.57.57,0,0,1-.569.509ZM2.259,264.566a16.084,16.084,0,0,0,5.295,10.117l.22-1.987a4.379,4.379,0,0,1,.7-1.934,3.2,3.2,0,0,0,.539-1.779v-.159a2.034,2.034,0,0,0-1.631-1.989,3.157,3.157,0,0,1-1.622-.868L4.7,264.905a2.021,2.021,0,0,0-2.233-.431Zm0,0" transform="translate(-1.001 -245.504)"/></g></g></svg>